# xmcd
# Track frame offsets:
# 150
# 14470
# 28639
# 40260
# 52255
# 69500
# 84120
# 97165
# 107961
# 120855
# 134049
# 144694
# 162314
# 177234
# 187804
#
# Disc length: 2674 seconds
# Revision: 0
# Processed by: cddbd v1.5.2PL0 Copyright (c) Steve Scherf et al.
# Submitted via: VisiTrax 2.11.2.271 - For more info visit www.synapsa.com
#
DISCID=d00a700f
DTITLE=Various Artist - Classic Country 1975-1979 Disc 1
DYEAR=1999
DGENRE=Country
TTITLE0=Bellamy Brothers - If I Said You Had A Beautiful Body
TTITLE1=Glen Campbell - Rhinestone Cowboy
TTITLE2=Freddy Fender - Before The Next Teardrop Falls
TTITLE3=Dolly Parton - Jolene
TTITLE4=C.W. McCall - Convoy
TTITLE5=Olivia Newton-John - If You Love Me Let Me Know
TTITLE6=Conway Twitty - Happy Birthday Darlin'
TTITLE7=George Jones and Tammy Wynette - Near You
TTITLE8=Eddie Rabbitt - Every Which Way But Loose
TTITLE9=Crystal Gayle - Talking In Your Sleep
TTITLE10=T.G.Sheppard - Happy Together
TTITLE11=Linda Ronstadt - Blue Bayou
TTITLE12=Waylon Jennings - Luckenback, Texas
TTITLE13=Willie Nelson - Blue Eyes Crying In The Rain
TTITLE14=Dr. Hook - Sharing The Night Together
EXTD=YEAR: 1999
EXTT0=
EXTT1=
EXTT2=
EXTT3=
EXTT4=
EXTT5=
EXTT6=
EXTT7=
EXTT8=
EXTT9=
EXTT10=
EXTT11=
EXTT12=
EXTT13=
EXTT14=
PLAYORDER=
